<svg width="14" height="12" viewBox="0 0 14 12" fill="none" xmlns="http://www.w3.org/2000/svg">
<path d="M12.1066 0.659993C10.3466 -0.540006 8.17331 0.0199936 6.99998 1.39333C5.82665 0.0199936 3.65331 -0.546673 1.89331 0.659993C0.959979 1.29999 0.373313 2.37999 0.333313 3.51999C0.239979 6.10666 2.53331 8.17999 6.03331 11.36L6.09998 11.42C6.60665 11.88 7.38665 11.88 7.89331 11.4133L7.96665 11.3467C11.4666 8.17333 13.7533 6.09999 13.6666 3.51333C13.6266 2.37999 13.04 1.29999 12.1066 0.659993ZM7.06665 10.3667L6.99998 10.4333L6.93331 10.3667C3.75998 7.49333 1.66665 5.59333 1.66665 3.66666C1.66665 2.33333 2.66665 1.33333 3.99998 1.33333C5.02665 1.33333 6.02665 1.99333 6.37998 2.90666H7.62665C7.97331 1.99333 8.97331 1.33333 9.99998 1.33333C11.3333 1.33333 12.3333 2.33333 12.3333 3.66666C12.3333 5.59333 10.24 7.49333 7.06665 10.3667Z" fill="#9D9D9D"/>
</svg>
