<svg width="10" height="10" viewBox="0 0 10 10" fill="none" xmlns="http://www.w3.org/2000/svg">
<path d="M9.00004 5.66668H5.66671V9.00001C5.66671 9.36668 5.36671 9.66668 5.00004 9.66668C4.63337 9.66668 4.33337 9.36668 4.33337 9.00001V5.66668H1.00004C0.633374 5.66668 0.333374 5.36668 0.333374 5.00001C0.333374 4.63334 0.633374 4.33334 1.00004 4.33334H4.33337V1.00001C4.33337 0.633344 4.63337 0.333344 5.00004 0.333344C5.36671 0.333344 5.66671 0.633344 5.66671 1.00001V4.33334H9.00004C9.36671 4.33334 9.66671 4.63334 9.66671 5.00001C9.66671 5.36668 9.36671 5.66668 9.00004 5.66668Z" fill="#E7E7E7"/>
</svg>
